<svg xmlns="http://www.w3.org/2000/svg" viewBox="0 0 500 700">
  <rect width="500" height="700" fill="#E7DFD0"/>
  <path fill="#B03A2E" d="M223.8 619.8L355.5 619.8L355.5 617.0L355.5 614.3L355.5 611.5L355.5 608.8L355.5 606.0L355.5 603.3L355.5 600.5L355.5 597.8L355.5 595.0L355.5 592.3L355.5 589.5L355.5 586.8L355.5 584.0L355.5 581.3L325.7 578.5L283.2 575.8L267.0 573.0L267.0 570.3L267.0 567.5L267.0 564.8L267.0 562.0L267.0 559.3L267.0 556.5L267.0 553.8L267.0 551.0L267.0 548.3L263.6 548.3L263.6 548.3L256.8 548.3L256.8 548.3L223.8 548.3L221.7 548.3L188.7 548.3L188.7 548.3L181.9 548.3L181.9 548.3L178.5 548.3L178.5 551.0L178.5 553.8L178.5 556.5L178.5 559.3L178.5 562.0L178.5 564.8L178.5 567.5L178.5 570.3L178.5 573.0L162.3 575.8L119.8 578.5L90.0 581.3L90.0 584.0L90.0 586.8L90.0 589.5L90.0 592.3L90.0 595.0L90.0 597.8L90.0 600.5L90.0 603.3L90.0 606.0L90.0 608.8L90.0 611.5L90.0 614.3L90.0 617.0L90.0 619.8L221.7 619.8Z"/>
  <path fill="#7B241C" d="M223.8 548.3L256.3 548.3L256.3 548.3L264.1 548.3L264.1 548.3L267.0 548.3L267.2 542.5L267.5 536.7L267.8 531.0L268.1 525.2L268.6 519.4L269.1 513.6L269.8 507.9L270.4 502.1L271.2 496.3L272.1 490.5L273.0 484.8L274.0 479.0L275.0 473.2L276.2 467.4L277.4 461.7L278.6 455.9L279.9 450.1L281.3 444.3L282.7 438.6L284.2 432.8L285.7 427.0L287.2 421.2L288.8 415.5L290.4 409.7L292.0 403.9L293.6 398.1L295.3 392.4L296.9 386.6L298.6 380.8L300.2 375.0L301.9 369.3L303.5 363.5L305.1 357.7L306.7 351.9L308.3 346.2L309.8 340.4L311.3 334.6L312.7 328.8L314.1 323.1L315.4 317.3L316.7 311.5L317.8 305.7L318.9 300.0L320.0 294.2L320.9 288.4L321.7 282.6L322.4 276.9L323.1 271.1L323.5 265.3L323.9 259.5L324.2 253.8L324.3 248.0L324.2 242.2L324.0 236.4L323.7 230.7L323.2 224.9L319.8 224.9L319.8 224.9L314.7 224.9L314.7 224.9L291.9 224.9L289.8 224.9L267.0 224.9L267.0 224.9L261.9 224.9L261.9 224.9L258.5 224.9L257.8 230.7L257.0 236.4L256.0 242.2L254.9 248.0L253.6 253.8L252.2 259.5L250.7 265.3L249.1 271.1L247.3 276.9L245.5 282.6L243.6 288.4L241.7 294.2L239.7 300.0L237.6 305.7L235.4 311.5L233.3 317.3L231.1 323.1L228.8 328.8L226.6 334.6L224.3 340.4L222.1 346.2L219.8 351.9L217.6 357.7L215.4 363.5L213.1 369.3L211.0 375.0L208.8 380.8L206.7 386.6L204.7 392.4L202.6 398.1L200.7 403.9L198.8 409.7L197.0 415.5L195.2 421.2L193.5 427.0L191.9 432.8L190.4 438.6L188.9 444.3L187.5 450.1L186.3 455.9L185.1 461.7L184.0 467.4L183.0 473.2L182.1 479.0L181.3 484.8L180.6 490.5L179.9 496.3L179.4 502.1L179.0 507.9L178.7 513.6L178.5 519.4L178.3 525.2L178.2 531.0L178.3 536.7L178.4 542.5L178.5 548.3L181.4 548.3L181.4 548.3L189.2 548.3L189.2 548.3L221.7 548.3Z"/>
  <path fill="#F6E7C4" d="M291.9 224.9L314.2 224.9L314.2 224.9L320.3 224.9L320.3 224.9L323.2 224.9L325.7 220.6L328.3 216.4L330.9 212.1L333.4 207.9L336.0 203.6L338.5 199.4L341.1 195.1L343.6 190.9L346.2 186.6L348.7 182.3L351.3 178.1L353.8 173.8L356.4 169.6L358.9 165.3L361.5 161.1L364.0 156.8L366.6 152.6L369.1 148.3L371.7 144.0L374.3 139.8L376.8 135.5L379.4 131.3L381.9 127.0L384.5 122.8L387.0 118.5L389.6 114.3L392.1 110.0L394.7 105.7L397.2 101.5L399.8 97.2L402.3 93.0L404.9 88.7L407.4 84.5L410.0 80.2L171.7 80.2L174.3 84.5L176.8 88.7L179.4 93.0L181.9 97.2L184.5 101.5L187.0 105.7L189.6 110.0L192.1 114.3L194.7 118.5L197.2 122.8L199.8 127.0L202.3 131.3L204.9 135.5L207.4 139.8L210.0 144.0L212.6 148.3L215.1 152.6L217.7 156.8L220.2 161.1L222.8 165.3L225.3 169.6L227.9 173.8L230.4 178.1L233.0 182.3L235.5 186.6L238.1 190.9L240.6 195.1L243.2 199.4L245.7 203.6L248.3 207.9L250.9 212.1L253.4 216.4L256.0 220.6L258.5 224.9L261.4 224.9L261.4 224.9L267.5 224.9L267.5 224.9L289.8 224.9Z"/>
</svg>
